<?xml version="1.0" encoding="UTF-8"?>
<svg xmlns="http://www.w3.org/2000/svg" version="1" width="26" height="26" viewBox="0 0 26 26">
    <path d="M21.1,0H4.9C2.2,0,0,2.2,0,4.9v16.2C0,23.8,2.2,26,4.9,26h16.2c2.7,0,4.9-2.2,4.9-4.9V4.9 C26,2.2,23.8,0,21.1,0z M8.6,15.2c0.4,0,0.9-0.1,1.2-0.2c0,0,0.1,0,0.1,0c0,0,0.1,0,0.1,0.1l0.2,0.9c0,0.1,0,0.1-0.1,0.1 c-0.3,0.1-0.9,0.3-1.6,0.3c-2,0-3.2-1.2-3.2-3.2c0-2,1.4-3.3,3.4-3.3c0.7,0,1.3,0.1,1.5,0.3c0.1,0,0.1,0.1,0.1,0.1l-0.2,0.9 c0,0,0,0.1-0.1,0.1c0,0-0.1,0-0.1,0c-0.2-0.1-0.6-0.2-1.1-0.2c-1.2,0-2,0.8-2,2.1C6.6,14.5,7.3,15.2,8.6,15.2z M15.4,14.1 c0,0.1-0.1,0.1-0.1,0.1h-1.8v1.9c0,0.1-0.1,0.1-0.1,0.1h-0.7c-0.1,0-0.1-0.1-0.1-0.1v-1.9h-1.8c-0.1,0-0.1-0.1-0.1-0.1v-0.7 c0-0.1,0.1-0.1,0.1-0.1h1.8v-1.9c0-0.1,0.1-0.1,0.1-0.1h0.7c0.1,0,0.1,0.1,0.1,0.1v1.9h1.8c0.1,0,0.1,0.1,0.1,0.1V14.1z M20.8,14.1 c0,0.1-0.1,0.1-0.1,0.1h-1.8v1.9c0,0.1-0.1,0.1-0.1,0.1H18c-0.1,0-0.1-0.1-0.1-0.1v-1.9H16c-0.1,0-0.1-0.1-0.1-0.1v-0.7 c0-0.1,0.1-0.1,0.1-0.1h1.8v-1.9c0-0.1,0.1-0.1,0.1-0.1h0.7c0.1,0,0.1,0.1,0.1,0.1v1.9h1.8c0.1,0,0.1,0.1,0.1,0.1V14.1z"/>
</svg>